<?xml version="1.0" standalone="no"?>
<!DOCTYPE svg PUBLIC "-//W3C//DTD SVG 20010904//EN"
 "http://www.w3.org/TR/2001/REC-SVG-20010904/DTD/svg10.dtd">
<svg version="1.0" xmlns="http://www.w3.org/2000/svg"
 width="16.000000pt" height="16.000000pt" viewBox="0 0 16.000000 16.000000"
 preserveAspectRatio="xMidYMid meet">
<metadata>
Created by potrace 1.11, written by Peter Selinger 2001-2013
</metadata>
<g transform="translate(0.000000,16.000000) scale(0.002286,-0.002286)"
fill="#000000" stroke="none">
<path d="M3305 6390 c-961 -70 -1797 -584 -2295 -1410 -158 -262 -288 -598
-349 -905 -73 -366 -73 -784 0 -1150 142 -712 564 -1362 1159 -1785 331 -235
715 -401 1105 -479 366 -73 784 -73 1150 0 1051 210 1917 1009 2209 2039 79
278 109 499 109 800 0 373 -60 708 -185 1030 -393 1013 -1292 1716 -2358 1844
-160 19 -404 27 -545 16z m470 -1500 c319 -21 539 -91 725 -231 260 -196 384
-525 350 -926 -39 -452 -272 -761 -675 -894 -195 -65 -254 -72 -677 -77 l-378
-4 0 -419 0 -419 -375 0 -375 0 0 1490 0 1490 628 0 c345 0 695 -5 777 -10z"/>
<path d="M3122 3828 l3 -473 300 0 c342 1 409 10 511 71 143 84 206 212 205
414 -2 260 -137 412 -398 450 -38 5 -193 10 -346 10 l-277 0 2 -472z"/>
</g>
</svg>
